HIERARCHY
ROOT Hips
{
	OFFSET -3.958830 18.904000 13.208200
	CHANNELS 6 Xposition Yposition Zposition Zrotation Yrotation Xrotation 
	JOINT LHipJoint
	{
		OFFSET 0.000000 0.000000 0.000000
		CHANNELS 3 Zrotation Yrotation Xrotation
		JOINT LeftUpLeg
		{
			OFFSET 1.800000 -1.400000 0.085000
			CHANNELS 3 Zrotation Yrotation Xrotation
			JOINT LeftLeg
			{
				OFFSET 2.215000 -6.000000 0.000000
				CHANNELS 3 Zrotation Yrotation Xrotation
				JOINT LeftFoot
				{
					OFFSET 2.500000 -6.900000 0.000000
					CHANNELS 3 Zrotation Yrotation Xrotation
					JOINT LeftToeBase
					{
						OFFSET 0.200000 -0.500000 1.950000
						CHANNELS 3 Zrotation Yrotation Xrotation
						End Site
						{
							OFFSET 0.000000 0.000000 0.000000
						}
					}
				}
			}
		}
	}
	JOINT RHipJoint
	{
		OFFSET 0.000000 0.000000 0.000000
		CHANNELS 3 Zrotation Yrotation Xrotation
		JOINT RightUpLeg
		{
			OFFSET -1.800000 -1.400000 0.085000
			CHANNELS 3 Zrotation Yrotation Xrotation
			JOINT RightLeg
			{
				OFFSET -2.215000 -6.000000 0.000000
				CHANNELS 3 Zrotation Yrotation Xrotation
				JOINT RightFoot
				{
					OFFSET -2.500000 -6.900000 0.000000
					CHANNELS 3 Zrotation Yrotation Xrotation
					JOINT RightToeBase
					{
						OFFSET -0.200000 -0.500000 1.950000
						CHANNELS 3 Zrotation Yrotation Xrotation
						End Site
						{
							OFFSET 0.000000 0.000000 0.000000
						}
					}
				}
			}
		}
	}
	JOINT LowerBack
	{
		OFFSET 0.000000 0.000000 0.000000
		CHANNELS 3 Zrotation Yrotation Xrotation
		JOINT Spine
		{
			OFFSET -0.087000 1.940000 -0.288900
			CHANNELS 3 Zrotation Yrotation Xrotation
			JOINT Spine1
			{
				OFFSET 0.000000 1.950000 0.060000
				CHANNELS 3 Zrotation Yrotation Xrotation
				JOINT Neck
				{
					OFFSET 0.000000 0.000000 0.000000
					CHANNELS 3 Zrotation Yrotation Xrotation
					JOINT Neck1
					{
						OFFSET 0.000000 1.600000 0.340000
						CHANNELS 3 Zrotation Yrotation Xrotation
						JOINT Head
						{
							OFFSET 0.000000 1.667000 -0.240000
							CHANNELS 3 Zrotation Yrotation Xrotation
							End Site
							{
								OFFSET 0.000000 0.000000 0.000000
							}
						}
					}
				}
				JOINT LeftShoulder
				{
					OFFSET 0.000000 0.000000 0.000000
					CHANNELS 3 Zrotation Yrotation Xrotation
					JOINT LeftArm
					{
						OFFSET 2.700000 1.550000 -0.730000
						CHANNELS 3 Zrotation Yrotation Xrotation
						JOINT LeftForeArm
						{
							OFFSET 5.450000 0.000000 0.000000
							CHANNELS 3 Zrotation Yrotation Xrotation
							JOINT LeftHand
							{
								OFFSET 3.450000 0.000000 0.000000
								CHANNELS 3 Zrotation Yrotation Xrotation
								JOINT LeftHandIndex1
								{
									OFFSET 0.750000 0.000000 0.000000
									CHANNELS 3 Zrotation Yrotation Xrotation
									End Site
									{
										OFFSET 0.000000 0.000000 0.000000
									}
								}
							}
						}
					}
				}
				JOINT RightShoulder
				{
					OFFSET 0.000000 0.000000 0.000000
					CHANNELS 3 Zrotation Yrotation Xrotation
					JOINT RightArm
					{
						OFFSET -2.700000 1.550000 -0.730000
						CHANNELS 3 Zrotation Yrotation Xrotation
						JOINT RightForeArm
						{
							OFFSET -5.450000 0.000000 0.000000
							CHANNELS 3 Zrotation Yrotation Xrotation
							JOINT RightHand
							{
								OFFSET -3.450000 0.000000 0.000000
								CHANNELS 3 Zrotation Yrotation Xrotation
								JOINT RightHandIndex1
								{
									OFFSET -0.750000 0.000000 0.000000
									CHANNELS 3 Zrotation Yrotation Xrotation
									End Site
									{
										OFFSET 0.000000 0.000000 0.000000
									}
								}
							}
						}
					}
				}
			}
		}
	}
}
MOTION
Frames: 12
Frame Time: 0.016667
1.183290 15.943530 -0.193070 -5.844155 10.636582 6.045005 -15.227724 12.844148 2.163568 11.171766 -1.881289 -12.337494 -5.647306 5.305793 11.348175 -1.307949 5.297347 3.279348 0.681350 0.194120 0.114520 18.373314 -10.378415 2.931979 -19.291598 2.387930 -30.764074 12.363091 -7.701599 20.487942 0.257017 -5.245982 2.793304 0.817660 1.353430 0.445390 -3.753547 -1.182311 -6.243064 7.783960 -2.390245 -1.589372 -0.961946 -2.957728 7.728097 1.845792 1.807979 -3.096813 3.717139 0.403756 14.519281 -5.998700 -1.347160 3.761510 -25.213799 -0.090976 -0.635525 -38.458159 0.172906 -0.211881 -24.421826 -5.859787 -1.463194 -4.972341 3.369064 -0.237830 1.270210 -1.066760 0.617560 22.558185 -2.555597 -0.850484 33.139162 0.005494 -4.240813 36.134608 40.876918 8.184273 1.063366 -2.559041 -0.603610 0.524000 0.099790 -0.232950 
1.146880 15.912900 -0.173430 -5.009454 10.807781 6.881808 -15.269387 12.891773 2.236925 10.775151 -2.014824 -12.879361 -6.155492 5.363910 11.141749 -1.398060 5.523134 3.270496 0.613150 0.133220 0.019290 18.323519 -10.350488 2.796540 -18.684920 2.199044 -29.367487 10.199641 -5.885469 15.409408 0.444683 -4.706325 3.015978 0.888440 1.580160 0.492800 -3.621415 -1.378162 -6.149273 5.988799 -2.433429 -2.534476 -0.411867 -3.075093 7.253770 1.651953 1.952390 -2.686382 4.011907 0.883335 13.136694 -6.618630 -1.362830 5.270120 -24.995679 1.023182 -1.142591 -39.238848 -0.314520 0.606084 -22.171372 -4.134696 -1.809078 -5.255100 3.351671 -0.390600 1.478100 -1.236660 0.632500 22.869311 -3.646547 -1.550685 34.776510 0.650714 -3.738331 32.521225 40.632835 6.809599 0.954440 -2.619007 -0.681920 0.592520 0.188980 -0.207080 
1.094380 15.871580 -0.151990 -3.869242 10.753885 7.830566 -15.301972 12.910849 2.235160 9.833299 -2.128311 -13.447805 -5.976849 5.269221 11.116798 -1.461272 5.652116 3.336578 0.530160 0.100390 -0.139330 18.295430 -10.221597 2.795150 -18.566416 2.119407 -27.679305 8.326591 -4.109152 8.973035 0.622055 -4.418287 3.201644 0.984730 1.871250 0.505270 -3.532636 -1.605744 -6.092810 4.084865 -2.421794 -3.436478 0.488775 -3.080112 6.291877 0.976022 1.649093 -1.985905 3.535693 1.697619 11.725521 -6.796710 -1.632680 7.163130 -23.907258 3.407892 -2.026946 -41.378263 -1.297635 1.477556 -19.633971 -2.936057 -1.901273 -5.568191 3.334157 -0.621650 1.724090 -1.460250 0.683150 23.219901 -5.487712 -2.623196 36.401793 1.307859 -2.982446 28.139813 40.117204 5.155976 0.849255 -2.705557 -0.765340 0.693090 0.263780 -0.134290 
1.032420 15.851860 -0.144890 -3.161571 9.998768 8.547790 -15.304394 12.893906 2.212681 9.249821 -2.301386 -14.772559 -5.723491 5.373866 12.388466 -1.490975 5.770990 3.367871 0.439370 0.032250 -0.283370 18.298516 -10.130903 2.870769 -17.789496 2.399421 -27.082176 7.094649 -3.144655 5.324939 0.734127 -4.359627 3.290045 1.017570 2.094680 0.521410 -3.528081 -1.665554 -6.084698 2.922599 -2.091390 -3.854467 0.657743 -2.745747 5.627459 0.636223 1.398273 -1.742767 3.153802 2.599564 10.685626 -6.589950 -1.643240 8.571460 -22.219274 5.159952 -2.635819 -44.022484 -2.434294 2.030972 -16.791424 -1.980504 -1.955621 -5.803688 3.313788 -0.782230 1.898310 -1.628760 0.718640 22.207555 -6.832636 -3.098551 40.327526 1.789098 -3.037373 22.765045 39.433727 3.103017 0.792670 -2.738719 -0.824970 0.753440 0.334710 -0.075240 
0.973880 15.867120 -0.145630 -2.936306 9.598588 8.672261 -15.298560 12.879636 2.221024 9.303337 -2.553550 -16.921137 -5.482929 5.759159 15.149340 -1.447831 5.819573 3.322220 0.388870 -0.019110 -0.328420 18.300656 -10.132620 2.902113 -16.775453 2.562476 -26.465722 7.876585 -3.126878 4.633989 0.735886 -4.311313 3.348434 0.959120 2.081140 0.480000 -3.539023 -1.637272 -6.083903 2.550452 -1.673857 -3.700798 0.403920 -2.311036 5.336028 0.576514 1.154054 -1.786891 2.818125 2.658885 10.612649 -6.047820 -1.792310 8.672850 -21.710704 5.613638 -2.875174 -45.933044 -3.225010 1.721316 -13.694258 -2.847008 -1.831436 -5.769587 3.232584 -0.749060 1.852030 -1.616600 0.713390 21.734625 -7.033364 -2.901858 43.951735 1.491458 -4.141755 17.818336 37.434040 1.178479 0.848290 -2.617503 -0.831000 0.767590 0.348660 -0.065490 
0.906950 15.898520 -0.157050 -2.797424 9.644966 8.716198 -15.321926 12.828668 2.391645 10.028155 -3.206715 -21.101183 -5.560341 6.809142 20.692797 -1.386894 6.310735 3.081351 0.306040 -0.150560 -0.331490 18.289263 -10.105439 2.836819 -15.595346 2.690996 -26.053254 9.682994 -3.735693 6.294135 0.737311 -4.337750 3.350280 0.860940 2.042780 0.449610 -3.486157 -1.731706 -6.107758 2.051925 -1.311564 -3.391230 0.576802 -1.938704 5.107045 0.452904 1.071965 -1.805008 2.681634 2.173209 10.833085 -6.262250 -1.841920 8.873940 -21.326793 5.922055 -3.142269 -47.623120 -4.202825 1.376919 -12.174539 -4.619330 -1.699277 -5.732202 3.145339 -0.666540 1.800860 -1.596070 0.665880 21.523312 -7.268875 -2.616219 46.273282 0.454440 -5.329487 15.609740 35.891745 0.312001 0.894821 -2.492981 -0.866990 0.765260 0.386090 -0.103390 
0.844280 15.937060 -0.164790 -2.905880 9.042242 8.457759 -15.353459 12.568744 2.774317 11.744857 -3.975122 -25.783551 -6.632056 8.634771 27.183828 -1.230467 7.299038 2.635280 0.287790 -0.211450 -0.295070 18.305573 -10.029507 2.688872 -14.430640 2.799919 -25.288261 12.210750 -4.863269 9.315590 0.665467 -4.489805 3.299822 0.782770 1.940230 0.395260 -3.449817 -1.679010 -6.219378 2.003764 -0.619557 -2.884592 0.701158 -1.238099 5.007091 0.235341 0.750886 -1.761672 2.156650 1.725293 11.459018 -5.971560 -2.173260 8.274200 -21.258698 6.218976 -3.371636 -48.913177 -4.973971 0.749581 -11.776749 -8.205829 -1.462069 -5.582343 3.062194 -0.521870 1.676060 -1.518140 0.636930 21.745347 -7.198139 -2.298237 47.508475 -0.383911 -6.307178 14.572083 34.700039 0.001572 0.948986 -2.352435 -0.886750 0.776470 0.384770 -0.145970 
0.777510 15.986510 -0.179820 -2.758459 8.186115 7.594041 -15.420742 12.174760 3.325870 13.714918 -4.796835 -30.534287 -7.844883 11.033984 34.375892 -0.980014 8.631933 2.043815 0.297700 -0.280760 -0.145390 18.317801 -9.866013 2.492949 -13.883959 2.791090 -24.051945 15.310597 -6.707414 13.548986 0.483215 -4.835215 3.139661 0.659970 1.693140 0.313120 -3.351447 -1.649293 -6.441964 1.557854 0.436491 -1.790008 0.933345 -0.107007 5.320171 0.099599 0.446094 -1.786819 1.519375 0.887241 13.402727 -5.805300 -2.218900 6.731650 -21.860424 5.723555 -3.416394 -48.971574 -5.831178 -0.035640 -12.595780 -12.585202 -1.032644 -5.297413 2.949926 -0.256110 1.431990 -1.338950 0.561750 22.417520 -6.240348 -1.712027 48.134162 -0.790021 -7.458757 13.236256 33.621986 -0.157965 1.055189 -2.134364 -0.898700 0.758960 0.347630 -0.247790 
0.720710 16.013080 -0.189180 -2.872222 6.790395 6.146530 -15.483789 11.689921 3.954454 16.515975 -5.218898 -34.527094 -10.039725 14.068879 40.648738 -0.647152 10.102519 1.422068 0.370250 -0.269930 0.061190 18.342844 -9.745698 2.240845 -12.706822 2.748424 -21.779732 17.142909 -8.559603 17.822161 0.234804 -5.265940 2.947879 0.568280 1.393920 0.268260 -3.281404 -1.441265 -6.734739 1.795952 1.601843 -0.215127 0.803473 1.151470 5.561393 0.409436 0.362833 -1.782979 1.203771 -0.184014 15.814811 -6.350960 -1.799130 4.575190 -23.579305 4.896457 -3.429176 -47.646662 -5.767709 -1.370275 -14.320616 -18.636050 -0.228798 -4.988736 2.903365 -0.006560 1.186770 -1.118840 0.492590 23.328920 -5.134915 -1.039332 47.247582 -1.334289 -8.024895 13.900127 32.153482 0.177035 1.164557 -1.978671 -0.858590 0.691470 0.262060 -0.353090 
0.663330 16.027660 -0.186980 -2.984995 5.247449 4.109205 -15.532745 11.321840 4.476966 19.359774 -5.085640 -36.995748 -12.346428 16.776321 44.589066 -0.375527 11.189991 0.956847 0.438910 -0.243760 0.223270 18.352086 -9.696048 2.033618 -11.540886 2.522887 -18.357903 18.316709 -10.230369 21.283428 -0.037630 -5.717164 2.773346 0.489270 1.122010 0.228690 -3.220443 -1.255264 -7.058241 2.158711 2.765013 2.020487 0.811766 2.520988 5.880110 0.641001 0.183089 -1.981821 0.555985 -1.034204 18.783749 -6.418400 -1.701630 1.529300 -25.356046 3.683182 -3.155506 -46.377383 -5.014793 -3.226356 -17.161494 -26.962495 1.207057 -4.683842 2.878614 0.236190 0.949310 -0.905640 0.430190 24.442484 -3.457123 -0.179587 45.536069 -1.913721 -8.372665 14.631955 30.291799 0.504112 1.251404 -1.810558 -0.813280 0.647860 0.201460 -0.438680 
0.594170 16.011720 -0.185870 -2.751044 3.921176 2.392586 -15.570191 11.074277 4.922115 21.536758 -4.703370 -38.978180 -14.573237 18.625853 45.964040 -0.151747 11.748517 0.710881 0.510970 -0.190920 0.284480 18.355400 -9.695626 1.861864 -10.051177 2.304291 -15.422199 17.731032 -11.271446 24.723978 -0.248468 -6.080513 2.634908 0.433090 0.945610 0.234390 -3.172513 -1.145887 -7.343814 2.273290 3.668701 4.075653 1.044801 3.668886 6.155493 0.362839 -0.624764 -2.366708 -1.144295 -1.321049 21.234091 -5.174780 -2.489390 -0.408540 -26.041088 2.871868 -2.648259 -46.053302 -4.241792 -4.885706 -21.421454 -36.278027 3.596138 -4.435245 3.015056 0.357410 0.773610 -0.765280 0.421370 25.436083 -1.552637 0.573350 43.569453 -1.919522 -7.966384 14.671670 27.151213 0.484027 1.346522 -1.743714 -0.720290 0.571500 0.151650 -0.445320 
0.532560 15.982060 -0.184280 -2.231257 1.819870 0.556811 -15.577223 11.119201 5.111736 22.439359 -4.042855 -39.550932 -15.423753 18.565098 44.540528 -0.173918 11.505032 0.726512 0.599810 -0.101620 0.334890 18.332261 -9.850650 1.747586 -8.504201 1.945491 -12.198964 15.260874 -11.132156 26.950363 -0.380709 -6.126892 2.628005 0.426520 0.808050 0.213290 -3.131783 -1.140806 -7.519851 2.414909 4.570773 6.459535 1.323053 4.962448 6.248618 -0.136619 -2.201742 -2.554838 -4.195392 -1.206156 23.369473 -3.548210 -3.619530 -3.214500 -27.097271 2.703235 -2.534318 -45.488937 -3.485912 -6.135683 -26.756631 -45.529202 7.103827 -4.216025 3.112351 0.479580 0.615610 -0.644110 0.433080 27.116658 0.299152 1.359907 40.251248 -2.406412 -7.434250 15.446626 24.179958 0.552290 1.392838 -1.681854 -0.664150 0.559070 0.101220 -0.447310 
